<svg xmlns="http://www.w3.org/2000/svg" viewBox="0 0 1200 675" width="1200" height="675" role="img" aria-label="Development">
  <defs><clipPath id="band-387068906"><rect x="0" y="0" width="1200" height="425"/></clipPath></defs>
  <rect width="1200" height="675" fill="#B33939"/>
  <g clip-path="url(#band-387068906)"><rect x="0" y="123" width="124" height="302" fill="#fcf9f8" fill-opacity="0.1" stroke="#fcf9f8" stroke-width="3" stroke-opacity="0.5"/><rect x="133" y="213" width="124" height="212" fill="#fcf9f8" fill-opacity="0.1" stroke="#fcf9f8" stroke-width="3" stroke-opacity="0.5"/><rect x="267" y="221" width="124" height="204" fill="#E9E3B4" fill-opacity="0.92" stroke="#fcf9f8" stroke-width="3" stroke-opacity="0.5"/><rect x="400" y="162" width="124" height="263" fill="#E9E3B4" fill-opacity="0.92" stroke="#fcf9f8" stroke-width="3" stroke-opacity="0.5"/><rect x="533" y="177" width="124" height="248" fill="#fcf9f8" fill-opacity="0.1" stroke="#fcf9f8" stroke-width="3" stroke-opacity="0.5"/><rect x="667" y="153" width="124" height="272" fill="#fcf9f8" fill-opacity="0.1" stroke="#fcf9f8" stroke-width="3" stroke-opacity="0.5"/><rect x="800" y="80" width="124" height="345" fill="#E9E3B4" fill-opacity="0.92" stroke="#fcf9f8" stroke-width="3" stroke-opacity="0.5"/><rect x="933" y="125" width="124" height="300" fill="#E9E3B4" fill-opacity="0.92" stroke="#fcf9f8" stroke-width="3" stroke-opacity="0.5"/><rect x="1067" y="111" width="124" height="314" fill="#E9E3B4" fill-opacity="0.92" stroke="#fcf9f8" stroke-width="3" stroke-opacity="0.5"/></g>
  <rect x="0" y="425" width="1200" height="250" fill="#B33939"/>
  <rect x="0" y="425" width="1200" height="4" fill="#fcf9f8" opacity="0.85"/>
  <text x="56" y="580" font-family="'Source Serif 4 Variable', 'Source Serif 4', Georgia, serif" font-size="76" font-weight="700" fill="#fcf9f8" letter-spacing="-1">DEVELOPMENT</text>
  <rect x="56" y="614" width="86" height="5" fill="#E9E3B4"/>
  <text x="1144" y="623" text-anchor="end" font-family="'JetBrains Mono', ui-monospace, monospace" font-size="19" letter-spacing="2" fill="#fcf9f8" opacity="0.7">PRAGUE INSIDER</text>
</svg>