<svg xmlns="http://www.w3.org/2000/svg" viewBox="0 0 1200 600" width="1200" height="600" role="img" aria-label="Plánování">
  <defs><clipPath id="band-2734275492"><rect x="0" y="0" width="1200" height="378"/></clipPath></defs>
  <rect width="1200" height="600" fill="#2D3436"/>
  <g clip-path="url(#band-2734275492)"><rect x="-30" y="-30" width="173" height="235" fill="#fcf9f8" fill-opacity="0.11" stroke="#fcf9f8" stroke-width="3" stroke-opacity="0.45"/><rect x="143" y="-30" width="113" height="235" fill="#fcf9f8" fill-opacity="0.035" stroke="#fcf9f8" stroke-width="3" stroke-opacity="0.45"/><rect x="-30" y="205" width="113" height="173" fill="#fcf9f8" fill-opacity="0.035" stroke="#fcf9f8" stroke-width="3" stroke-opacity="0.45"/><rect x="83" y="205" width="173" height="173" fill="#fcf9f8" fill-opacity="0.035" stroke="#fcf9f8" stroke-width="3" stroke-opacity="0.45"/><rect x="256" y="-30" width="217" height="114" fill="#fcf9f8" fill-opacity="0.11" stroke="#fcf9f8" stroke-width="3" stroke-opacity="0.45"/><rect x="256" y="84" width="217" height="125" fill="#fcf9f8" fill-opacity="0.035" stroke="#fcf9f8" stroke-width="3" stroke-opacity="0.45"/><rect x="256" y="209" width="131" height="169" fill="#fcf9f8" fill-opacity="0.035" stroke="#fcf9f8" stroke-width="3" stroke-opacity="0.45"/><rect x="387" y="209" width="86" height="169" fill="#fcf9f8" fill-opacity="0.035" stroke="#fcf9f8" stroke-width="3" stroke-opacity="0.45"/><rect x="473" y="-30" width="232" height="243" fill="#fcf9f8" fill-opacity="0.11" stroke="#fcf9f8" stroke-width="3" stroke-opacity="0.45"/><rect x="705" y="-30" width="162" height="243" fill="#fcf9f8" fill-opacity="0.035" stroke="#fcf9f8" stroke-width="3" stroke-opacity="0.45"/><rect x="473" y="213" width="182" height="165" fill="#fcf9f8" fill-opacity="0.035" stroke="#fcf9f8" stroke-width="3" stroke-opacity="0.45"/><rect x="655" y="213" width="212" height="165" fill="#fcf9f8" fill-opacity="0.035" stroke="#fcf9f8" stroke-width="3" stroke-opacity="0.45"/><rect x="867" y="-30" width="148" height="162" fill="#fcf9f8" fill-opacity="0.11" stroke="#fcf9f8" stroke-width="3" stroke-opacity="0.45"/><rect x="1015" y="-30" width="215" height="162" fill="#fcf9f8" fill-opacity="0.035" stroke="#fcf9f8" stroke-width="3" stroke-opacity="0.45"/><rect x="867" y="132" width="194" height="246" fill="#fcf9f8" fill-opacity="0.035" stroke="#fcf9f8" stroke-width="3" stroke-opacity="0.45"/><rect x="1061" y="132" width="169" height="246" fill="#fcf9f8" fill-opacity="0.035" stroke="#fcf9f8" stroke-width="3" stroke-opacity="0.45"/><rect x="83" y="205" width="173" height="173" fill="#E9E3B4" opacity="0.92"/></g>
  <rect x="0" y="378" width="1200" height="222" fill="#2D3436"/>
  <rect x="0" y="378" width="1200" height="4" fill="#fcf9f8" opacity="0.85"/>
  <text x="56" y="516" font-family="'Source Serif 4 Variable', 'Source Serif 4', Georgia, serif" font-size="92" font-weight="700" fill="#fcf9f8" letter-spacing="-1">PLÁNOVÁNÍ</text>
  <rect x="56" y="550" width="86" height="5" fill="#E9E3B4"/>
  <text x="1144" y="548" text-anchor="end" font-family="'JetBrains Mono', ui-monospace, monospace" font-size="19" letter-spacing="2" fill="#fcf9f8" opacity="0.7">PRAGUE INSIDER</text>
</svg>