<svg xmlns="http://www.w3.org/2000/svg" viewBox="0 0 1200 600" width="1200" height="600" role="img" aria-label="Planning">
  <defs><clipPath id="band-planning-hero"><rect x="0" y="0" width="1200" height="378"/></clipPath></defs>
  <rect width="1200" height="600" fill="#2D3436"/>
  <g clip-path="url(#band-planning-hero)"><g transform="translate(600.0 -144.8) scale(2.5)"><polygon points="-56.5,32.6 -26.5,50.0 -26.5,45.0 -56.5,27.6" fill="#fcf9f8" fill-opacity="0.28"/><polygon points="-26.5,50.0 30.0,17.3 30.0,12.3 -26.5,45.0" fill="#fcf9f8" fill-opacity="0.16"/><polygon points="0.0,-5.0 30.0,12.3 -26.5,45.0 -56.5,27.6" fill="#fcf9f8" fill-opacity="0.5"/><polygon points="-101.1,58.4 -71.0,75.7 -71.0,70.7 -101.1,53.4" fill="#fcf9f8" fill-opacity="0.28"/><polygon points="-71.0,75.7 -29.9,52.0 -29.9,47.0 -71.0,70.7" fill="#fcf9f8" fill-opacity="0.16"/><polygon points="-60.0,29.6 -29.9,47.0 -71.0,70.7 -101.1,53.4" fill="#fcf9f8" fill-opacity="0.5"/><polygon points="-163.6,94.5 -133.5,111.8 -133.5,106.8 -163.6,89.5" fill="#fcf9f8" fill-opacity="0.28"/><polygon points="-133.5,111.8 -74.5,77.7 -74.5,72.7 -133.5,106.8" fill="#fcf9f8" fill-opacity="0.16"/><polygon points="-104.5,55.4 -74.5,72.7 -133.5,106.8 -163.6,89.5" fill="#fcf9f8" fill-opacity="0.5"/><polygon points="-214.4,123.8 -184.3,141.1 -184.3,136.1 -214.4,118.8" fill="#fcf9f8" fill-opacity="0.28"/><polygon points="-184.3,141.1 -137.0,113.8 -137.0,108.8 -184.3,136.1" fill="#fcf9f8" fill-opacity="0.16"/><polygon points="-167.1,91.5 -137.0,108.8 -184.3,136.1 -214.4,118.8" fill="#fcf9f8" fill-opacity="0.5"/><polygon points="-235.6,136.0 -205.5,153.3 -205.5,148.3 -235.6,131.0" fill="#fcf9f8" fill-opacity="0.28"/><polygon points="-205.5,153.3 -187.8,143.1 -187.8,138.1 -205.5,148.3" fill="#fcf9f8" fill-opacity="0.16"/><polygon points="-217.8,120.8 -187.8,138.1 -205.5,148.3 -235.6,131.0" fill="#fcf9f8" fill-opacity="0.5"/><polygon points="1.6,37.8 55.8,69.1 55.8,64.1 1.6,32.8" fill="#fcf9f8" fill-opacity="0.28"/><polygon points="55.8,69.1 87.7,50.6 87.7,45.6 55.8,64.1" fill="#fcf9f8" fill-opacity="0.16"/><polygon points="33.5,14.3 87.7,45.6 55.8,64.1 1.6,32.8" fill="#fcf9f8" fill-opacity="0.5"/><polygon points="-57.0,71.6 -2.8,102.9 -2.8,97.9 -57.0,66.6" fill="#fcf9f8" fill-opacity="0.28"/><polygon points="-2.8,102.9 52.3,71.1 52.3,66.1 -2.8,97.9" fill="#fcf9f8" fill-opacity="0.16"/><polygon points="-1.9,34.8 52.3,66.1 -2.8,97.9 -57.0,66.6" fill="#fcf9f8" fill-opacity="0.5"/><polygon points="-101.3,97.2 -47.1,128.5 -47.1,123.5 -101.3,92.2" fill="#fcf9f8" fill-opacity="0.28"/><polygon points="-47.1,128.5 -6.2,104.9 -6.2,99.9 -47.1,123.5" fill="#fcf9f8" fill-opacity="0.16"/><polygon points="-60.4,68.6 -6.2,99.9 -47.1,123.5 -101.3,92.2" fill="#fcf9f8" fill-opacity="0.5"/><polygon points="-157.4,129.6 -103.2,160.9 -103.2,155.9 -157.4,124.6" fill="#fcf9f8" fill-opacity="0.28"/><polygon points="-103.2,160.9 -50.6,130.5 -50.6,125.5 -103.2,155.9" fill="#fcf9f8" fill-opacity="0.16"/><polygon points="-104.8,94.2 -50.6,125.5 -103.2,155.9 -157.4,124.6" fill="#fcf9f8" fill-opacity="0.5"/><polygon points="-202.0,155.3 -147.8,186.6 -147.8,181.6 -202.0,150.3" fill="#fcf9f8" fill-opacity="0.28"/><polygon points="-147.8,186.6 -106.7,162.9 -106.7,157.9 -147.8,181.6" fill="#fcf9f8" fill-opacity="0.16"/><polygon points="-160.9,126.6 -106.7,157.9 -147.8,181.6 -202.0,150.3" fill="#fcf9f8" fill-opacity="0.5"/><polygon points="33.1,86.2 88.1,118.0 88.1,113.0 33.1,81.2" fill="#fcf9f8" fill-opacity="0.28"/><polygon points="88.1,118.0 146.2,84.4 146.2,79.4 88.1,113.0" fill="#fcf9f8" fill-opacity="0.16"/><polygon points="91.2,47.6 146.2,79.4 88.1,113.0 33.1,81.2" fill="#fcf9f8" fill-opacity="0.5"/><polygon points="-31.5,123.5 23.5,155.3 23.5,150.3 -31.5,118.5" fill="#fcf9f8" fill-opacity="0.28"/><polygon points="23.5,155.3 84.6,120.0 84.6,115.0 23.5,150.3" fill="#fcf9f8" fill-opacity="0.16"/><polygon points="29.6,83.2 84.6,115.0 23.5,150.3 -31.5,118.5" fill="#fcf9f8" fill-opacity="0.5"/><polygon points="-90.3,157.4 -35.3,189.2 -35.3,184.2 -90.3,152.4" fill="#fcf9f8" fill-opacity="0.28"/><polygon points="-35.3,189.2 20.0,157.3 20.0,152.3 -35.3,184.2" fill="#fcf9f8" fill-opacity="0.16"/><polygon points="-35.0,120.5 20.0,152.3 -35.3,184.2 -90.3,152.4" fill="#fcf9f8" fill-opacity="0.5"/><polygon points="-144.4,188.6 -89.3,220.4 -89.3,215.4 -144.4,183.6" fill="#fcf9f8" fill-opacity="0.28"/><polygon points="-89.3,220.4 -38.7,191.2 -38.7,186.2 -89.3,215.4" fill="#fcf9f8" fill-opacity="0.16"/><polygon points="-93.8,154.4 -38.7,186.2 -89.3,215.4 -144.4,183.6" fill="#fcf9f8" fill-opacity="0.5"/><polygon points="99.3,115.5 158.3,149.6 158.3,144.6 99.3,110.5" fill="#fcf9f8" fill-opacity="0.28"/><polygon points="158.3,149.6 208.7,120.5 208.7,115.5 158.3,144.6" fill="#fcf9f8" fill-opacity="0.16"/><polygon points="149.7,81.4 208.7,115.5 158.3,144.6 99.3,110.5" fill="#fcf9f8" fill-opacity="0.5"/><polygon points="60.7,137.8 119.8,171.9 119.8,166.9 60.7,132.8" fill="#fcf9f8" fill-opacity="0.28"/><polygon points="119.8,171.9 154.9,151.6 154.9,146.6 119.8,166.9" fill="#fcf9f8" fill-opacity="0.16"/><polygon points="95.8,112.5 154.9,146.6 119.8,166.9 60.7,132.8" fill="#fcf9f8" fill-opacity="0.5"/><polygon points="27.0,157.2 86.1,191.3 86.1,186.3 27.0,152.2" fill="#fcf9f8" fill-opacity="0.28"/><polygon points="86.1,191.3 116.3,173.9 116.3,168.9 86.1,186.3" fill="#fcf9f8" fill-opacity="0.16"/><polygon points="57.3,134.8 116.3,168.9 86.1,186.3 27.0,152.2" fill="#fcf9f8" fill-opacity="0.5"/><polygon points="-2.4,174.2 56.6,208.3 56.6,203.3 -2.4,169.2" fill="#fcf9f8" fill-opacity="0.28"/><polygon points="56.6,208.3 82.6,193.3 82.6,188.3 56.6,203.3" fill="#fcf9f8" fill-opacity="0.16"/><polygon points="23.6,154.2 82.6,188.3 56.6,203.3 -2.4,169.2" fill="#fcf9f8" fill-opacity="0.5"/><polygon points="-59.9,207.4 -0.9,241.5 -0.9,236.5 -59.9,202.4" fill="#fcf9f8" fill-opacity="0.28"/><polygon points="-0.9,241.5 53.2,210.3 53.2,205.3 -0.9,236.5" fill="#fcf9f8" fill-opacity="0.16"/><polygon points="-5.9,171.2 53.2,205.3 -0.9,236.5 -59.9,202.4" fill="#fcf9f8" fill-opacity="0.5"/><polygon points="-85.9,222.4 -26.8,256.5 -26.8,251.5 -85.9,217.4" fill="#fcf9f8" fill-opacity="0.28"/><polygon points="-26.8,256.5 -4.3,243.5 -4.3,238.5 -26.8,251.5" fill="#fcf9f8" fill-opacity="0.16"/><polygon points="-63.4,204.4 -4.3,238.5 -26.8,251.5 -85.9,217.4" fill="#fcf9f8" fill-opacity="0.5"/><polygon points="182.1,139.9 205.5,153.4 205.5,148.4 182.1,134.9" fill="#fcf9f8" fill-opacity="0.28"/><polygon points="205.5,153.4 235.6,136.0 235.6,131.0 205.5,148.4" fill="#fcf9f8" fill-opacity="0.16"/><polygon points="212.2,117.5 235.6,131.0 205.5,148.4 182.1,134.9" fill="#fcf9f8" fill-opacity="0.5"/><polygon points="133.9,167.8 157.2,181.2 157.2,176.2 133.9,162.8" fill="#fcf9f8" fill-opacity="0.28"/><polygon points="157.2,181.2 202.0,155.4 202.0,150.4 157.2,176.2" fill="#fcf9f8" fill-opacity="0.16"/><polygon points="178.7,136.9 202.0,150.4 157.2,176.2 133.9,162.8" fill="#fcf9f8" fill-opacity="0.5"/><polygon points="104.5,184.7 127.8,198.2 127.8,193.2 104.5,179.7" fill="#fcf9f8" fill-opacity="0.28"/><polygon points="127.8,198.2 153.7,183.2 153.7,178.2 127.8,193.2" fill="#fcf9f8" fill-opacity="0.16"/><polygon points="130.4,164.8 153.7,178.2 127.8,193.2 104.5,179.7" fill="#fcf9f8" fill-opacity="0.5"/><polygon points="64.1,208.0 87.5,221.5 87.5,216.5 64.1,203.0" fill="#fcf9f8" fill-opacity="0.28"/><polygon points="87.5,221.5 124.3,200.2 124.3,195.2 87.5,216.5" fill="#fcf9f8" fill-opacity="0.16"/><polygon points="101.0,181.7 124.3,195.2 87.5,216.5 64.1,203.0" fill="#fcf9f8" fill-opacity="0.5"/><polygon points="35.8,224.4 59.1,237.9 59.1,232.9 35.8,219.4" fill="#fcf9f8" fill-opacity="0.28"/><polygon points="59.1,237.9 84.0,223.5 84.0,218.5 59.1,232.9" fill="#fcf9f8" fill-opacity="0.16"/><polygon points="60.7,205.0 84.0,218.5 59.1,232.9 35.8,219.4" fill="#fcf9f8" fill-opacity="0.5"/><polygon points="-18.2,255.6 5.1,269.0 5.1,264.0 -18.2,250.6" fill="#fcf9f8" fill-opacity="0.28"/><polygon points="5.1,269.0 55.7,239.9 55.7,234.9 5.1,264.0" fill="#fcf9f8" fill-opacity="0.16"/><polygon points="32.3,221.4 55.7,234.9 5.1,264.0 -18.2,250.6" fill="#fcf9f8" fill-opacity="0.5"/><polygon points="-23.3,258.5 0.0,272.0 0.0,267.0 -23.3,253.5" fill="#fcf9f8" fill-opacity="0.28"/><polygon points="0.0,272.0 1.7,271.0 1.7,266.0 0.0,267.0" fill="#fcf9f8" fill-opacity="0.16"/><polygon points="-21.7,252.6 1.7,266.0 0.0,267.0 -23.3,253.5" fill="#fcf9f8" fill-opacity="0.5"/></g></g>
  <rect x="0" y="378" width="1200" height="222" fill="#2D3436"/>
  <rect x="0" y="378" width="1200" height="4" fill="#fcf9f8" opacity="0.85"/>
  <text x="56" y="516" font-family="'Source Serif 4 Variable', 'Source Serif 4', Georgia, serif" font-size="92" font-weight="700" fill="#fcf9f8" letter-spacing="-1">PLANNING</text>
  <rect x="56" y="550" width="86" height="5" fill="#E9E3B4"/>
  <text x="1144" y="548" text-anchor="end" font-family="'JetBrains Mono', ui-monospace, monospace" font-size="19" letter-spacing="2" fill="#fcf9f8" opacity="0.7">PRAGUE INSIDER</text>
</svg>